<svg id="visual" viewBox="0 0 1980 1080" width="1980" height="1080" xmlns="http://www.w3.org/2000/svg" xmlns:xlink="http://www.w3.org/1999/xlink" version="1.1"><rect x="0" y="0" width="1980" height="1080" fill="#001220"></rect><g fill="#7c091e"><circle r="49" cx="84" cy="657"></circle><circle r="22" cx="1025" cy="829"></circle><circle r="25" cx="1939" cy="153"></circle><circle r="28" cx="1263" cy="316"></circle><circle r="47" cx="179" cy="914"></circle><circle r="47" cx="1116" cy="385"></circle><circle r="22" cx="1019" cy="721"></circle><circle r="36" cx="138" cy="391"></circle><circle r="30" cx="791" cy="63"></circle><circle r="36" cx="1825" cy="12"></circle><circle r="31" cx="1486" cy="818"></circle><circle r="35" cx="1361" cy="769"></circle><circle r="28" cx="809" cy="681"></circle><circle r="23" cx="1940" cy="412"></circle><circle r="40" cx="497" cy="253"></circle><circle r="46" cx="918" cy="1029"></circle><circle r="46" cx="961" cy="244"></circle><circle r="44" cx="665" cy="860"></circle><circle r="41" cx="635" cy="959"></circle><circle r="46" cx="1928" cy="569"></circle><circle r="23" cx="412" cy="1005"></circle><circle r="36" cx="1709" cy="81"></circle><circle r="39" cx="1642" cy="772"></circle><circle r="47" cx="527" cy="794"></circle><circle r="37" cx="860" cy="863"></circle><circle r="23" cx="696" cy="117"></circle><circle r="43" cx="129" cy="147"></circle><circle r="22" cx="407" cy="811"></circle><circle r="35" cx="1204" cy="1070"></circle><circle r="46" cx="1512" cy="375"></circle><circle r="29" cx="288" cy="219"></circle><circle r="29" cx="402" cy="225"></circle><circle r="29" cx="1275" cy="209"></circle><circle r="46" cx="1272" cy="862"></circle><circle r="43" cx="1242" cy="685"></circle><circle r="26" cx="1187" cy="504"></circle><circle r="38" cx="1451" cy="585"></circle><circle r="34" cx="970" cy="506"></circle><circle r="24" cx="657" cy="506"></circle><circle r="24" cx="1675" cy="319"></circle><circle r="28" cx="1433" cy="242"></circle><circle r="40" cx="1873" cy="275"></circle><circle r="39" cx="743" cy="589"></circle><circle r="39" cx="304" cy="121"></circle><circle r="37" cx="1698" cy="204"></circle><circle r="26" cx="327" cy="331"></circle><circle r="27" cx="1545" cy="1025"></circle><circle r="39" cx="133" cy="785"></circle><circle r="39" cx="849" cy="323"></circle><circle r="39" cx="676" cy="736"></circle><circle r="37" cx="1715" cy="487"></circle><circle r="36" cx="1835" cy="648"></circle><circle r="32" cx="1731" cy="845"></circle><circle r="31" cx="742" cy="936"></circle><circle r="46" cx="1385" cy="971"></circle><circle r="26" cx="1800" cy="407"></circle><circle r="39" cx="209" cy="615"></circle><circle r="41" cx="452" cy="56"></circle><circle r="38" cx="1166" cy="135"></circle><circle r="21" cx="1118" cy="1027"></circle><circle r="35" cx="1124" cy="648"></circle><circle r="37" cx="604" cy="81"></circle><circle r="27" cx="1612" cy="936"></circle><circle r="45" cx="67" cy="960"></circle><circle r="46" cx="937" cy="786"></circle><circle r="42" cx="256" cy="842"></circle><circle r="37" cx="1057" cy="4"></circle><circle r="43" cx="648" cy="329"></circle><circle r="39" cx="543" cy="382"></circle><circle r="45" cx="370" cy="666"></circle><circle r="29" cx="1643" cy="579"></circle><circle r="33" cx="1856" cy="972"></circle><circle r="27" cx="1403" cy="486"></circle><circle r="21" cx="842" cy="181"></circle><circle r="46" cx="1895" cy="765"></circle><circle r="37" cx="298" cy="997"></circle><circle r="46" cx="1414" cy="50"></circle><circle r="24" cx="18" cy="522"></circle><circle r="33" cx="949" cy="58"></circle></g></svg>